<mxfile host="Electron" modified="2024-04-07T19:39:54.973Z" agent="Mozilla/5.0 (Windows NT 10.0; Win64; x64) AppleWebKit/537.36 (KHTML, like Gecko) draw.io/24.1.0 Chrome/120.0.6099.109 Electron/28.1.0 Safari/537.36" etag="gQsdtwzgRO724S0heHK9" version="24.1.0" type="device">
  <diagram name="Page-1" id="10a91c8b-09ff-31b1-d368-03940ed4cc9e">
    <mxGraphModel dx="678" dy="399" grid="1" gridSize="10" guides="1" tooltips="1" connect="1" arrows="1" fold="1" page="1" pageScale="1" pageWidth="1100" pageHeight="850" background="none" math="0" shadow="0">
      <root>
        <mxCell id="0" />
        <mxCell id="1" parent="0" />
        <mxCell id="wmZmUEkfOFmcSzmyiwCO-7" style="rounded=0;orthogonalLoop=1;jettySize=auto;html=1;exitX=0;exitY=1;exitDx=0;exitDy=0;entryX=1;entryY=0;entryDx=0;entryDy=0;fontSize=10;" parent="1" source="wmZmUEkfOFmcSzmyiwCO-1" target="wmZmUEkfOFmcSzmyiwCO-2" edge="1">
          <mxGeometry relative="1" as="geometry" />
        </mxCell>
        <mxCell id="wmZmUEkfOFmcSzmyiwCO-8" style="rounded=0;orthogonalLoop=1;jettySize=auto;html=1;exitX=1;exitY=1;exitDx=0;exitDy=0;entryX=0;entryY=0;entryDx=0;entryDy=0;fontSize=10;" parent="1" source="wmZmUEkfOFmcSzmyiwCO-1" target="wmZmUEkfOFmcSzmyiwCO-27" edge="1">
          <mxGeometry relative="1" as="geometry">
            <mxPoint x="215.85786437626894" y="75.85786437626894" as="targetPoint" />
          </mxGeometry>
        </mxCell>
        <mxCell id="wmZmUEkfOFmcSzmyiwCO-1" value="A" style="ellipse;whiteSpace=wrap;html=1;aspect=fixed;fontSize=10;" parent="1" vertex="1">
          <mxGeometry x="140" y="20" width="30" height="30" as="geometry" />
        </mxCell>
        <mxCell id="wmZmUEkfOFmcSzmyiwCO-14" style="rounded=0;orthogonalLoop=1;jettySize=auto;html=1;exitX=0;exitY=1;exitDx=0;exitDy=0;entryX=0.5;entryY=0;entryDx=0;entryDy=0;fontSize=10;" parent="1" source="wmZmUEkfOFmcSzmyiwCO-2" target="wmZmUEkfOFmcSzmyiwCO-11" edge="1">
          <mxGeometry relative="1" as="geometry" />
        </mxCell>
        <mxCell id="wmZmUEkfOFmcSzmyiwCO-16" style="rounded=0;orthogonalLoop=1;jettySize=auto;html=1;exitX=1;exitY=1;exitDx=0;exitDy=0;entryX=0.5;entryY=0;entryDx=0;entryDy=0;fontSize=10;" parent="1" source="wmZmUEkfOFmcSzmyiwCO-2" target="wmZmUEkfOFmcSzmyiwCO-21" edge="1">
          <mxGeometry relative="1" as="geometry">
            <mxPoint x="145.85786437626916" y="115.8578643762691" as="targetPoint" />
          </mxGeometry>
        </mxCell>
        <mxCell id="4kz16ThGhGbznya0biYC-2" style="edgeStyle=orthogonalEdgeStyle;rounded=0;orthogonalLoop=1;jettySize=auto;html=1;exitX=0.5;exitY=1;exitDx=0;exitDy=0;entryX=0.5;entryY=0;entryDx=0;entryDy=0;" edge="1" parent="1" source="wmZmUEkfOFmcSzmyiwCO-2" target="4kz16ThGhGbznya0biYC-1">
          <mxGeometry relative="1" as="geometry" />
        </mxCell>
        <mxCell id="wmZmUEkfOFmcSzmyiwCO-2" value="B" style="ellipse;whiteSpace=wrap;html=1;aspect=fixed;fontSize=10;" parent="1" vertex="1">
          <mxGeometry x="70" y="60" width="30" height="30" as="geometry" />
        </mxCell>
        <mxCell id="wmZmUEkfOFmcSzmyiwCO-11" value="D" style="ellipse;whiteSpace=wrap;html=1;aspect=fixed;fontSize=10;" parent="1" vertex="1">
          <mxGeometry x="20" y="110" width="30" height="30" as="geometry" />
        </mxCell>
        <mxCell id="wmZmUEkfOFmcSzmyiwCO-21" value="F" style="ellipse;whiteSpace=wrap;html=1;aspect=fixed;fontSize=10;" parent="1" vertex="1">
          <mxGeometry x="120" y="110" width="30" height="30" as="geometry" />
        </mxCell>
        <mxCell id="wmZmUEkfOFmcSzmyiwCO-27" value="C" style="ellipse;whiteSpace=wrap;html=1;aspect=fixed;fontSize=10;" parent="1" vertex="1">
          <mxGeometry x="210" y="60" width="30" height="30" as="geometry" />
        </mxCell>
        <mxCell id="4kz16ThGhGbznya0biYC-4" style="edgeStyle=orthogonalEdgeStyle;rounded=0;orthogonalLoop=1;jettySize=auto;html=1;exitX=0.5;exitY=1;exitDx=0;exitDy=0;entryX=0.5;entryY=0;entryDx=0;entryDy=0;" edge="1" parent="1" source="4kz16ThGhGbznya0biYC-1">
          <mxGeometry relative="1" as="geometry">
            <mxPoint x="85" y="160.00000000000006" as="targetPoint" />
          </mxGeometry>
        </mxCell>
        <mxCell id="4kz16ThGhGbznya0biYC-1" value="E" style="ellipse;whiteSpace=wrap;html=1;aspect=fixed;fontSize=10;" vertex="1" parent="1">
          <mxGeometry x="70" y="110" width="30" height="30" as="geometry" />
        </mxCell>
        <mxCell id="4kz16ThGhGbznya0biYC-5" style="rounded=0;orthogonalLoop=1;jettySize=auto;html=1;exitX=0;exitY=1;exitDx=0;exitDy=0;entryX=0.5;entryY=0;entryDx=0;entryDy=0;fontSize=10;" edge="1" parent="1" source="4kz16ThGhGbznya0biYC-8" target="4kz16ThGhGbznya0biYC-9">
          <mxGeometry relative="1" as="geometry" />
        </mxCell>
        <mxCell id="4kz16ThGhGbznya0biYC-6" style="rounded=0;orthogonalLoop=1;jettySize=auto;html=1;exitX=1;exitY=1;exitDx=0;exitDy=0;entryX=0.5;entryY=0;entryDx=0;entryDy=0;fontSize=10;" edge="1" parent="1" source="4kz16ThGhGbznya0biYC-8" target="4kz16ThGhGbznya0biYC-10">
          <mxGeometry relative="1" as="geometry">
            <mxPoint x="145.85786437626916" y="215.8578643762691" as="targetPoint" />
          </mxGeometry>
        </mxCell>
        <mxCell id="4kz16ThGhGbznya0biYC-7" style="edgeStyle=orthogonalEdgeStyle;rounded=0;orthogonalLoop=1;jettySize=auto;html=1;exitX=0.5;exitY=1;exitDx=0;exitDy=0;entryX=0.5;entryY=0;entryDx=0;entryDy=0;" edge="1" parent="1" source="4kz16ThGhGbznya0biYC-8" target="4kz16ThGhGbznya0biYC-11">
          <mxGeometry relative="1" as="geometry" />
        </mxCell>
        <mxCell id="4kz16ThGhGbznya0biYC-8" value="G" style="ellipse;whiteSpace=wrap;html=1;aspect=fixed;fontSize=10;" vertex="1" parent="1">
          <mxGeometry x="70" y="160" width="30" height="30" as="geometry" />
        </mxCell>
        <mxCell id="4kz16ThGhGbznya0biYC-9" value="H" style="ellipse;whiteSpace=wrap;html=1;aspect=fixed;fontSize=10;" vertex="1" parent="1">
          <mxGeometry x="20" y="210" width="30" height="30" as="geometry" />
        </mxCell>
        <mxCell id="4kz16ThGhGbznya0biYC-10" value="J" style="ellipse;whiteSpace=wrap;html=1;aspect=fixed;fontSize=10;" vertex="1" parent="1">
          <mxGeometry x="120" y="210" width="30" height="30" as="geometry" />
        </mxCell>
        <mxCell id="4kz16ThGhGbznya0biYC-11" value="I" style="ellipse;whiteSpace=wrap;html=1;aspect=fixed;fontSize=10;" vertex="1" parent="1">
          <mxGeometry x="70" y="210" width="30" height="30" as="geometry" />
        </mxCell>
        <mxCell id="4kz16ThGhGbznya0biYC-19" style="rounded=0;orthogonalLoop=1;jettySize=auto;html=1;exitX=0.5;exitY=1;exitDx=0;exitDy=0;entryX=0.5;entryY=0;entryDx=0;entryDy=0;fontSize=10;" edge="1" parent="1" source="4kz16ThGhGbznya0biYC-10" target="4kz16ThGhGbznya0biYC-23">
          <mxGeometry relative="1" as="geometry">
            <mxPoint x="99.39339828220386" y="249.99660171779624" as="sourcePoint" />
          </mxGeometry>
        </mxCell>
        <mxCell id="4kz16ThGhGbznya0biYC-20" style="rounded=0;orthogonalLoop=1;jettySize=auto;html=1;exitX=0.5;exitY=1;exitDx=0;exitDy=0;entryX=0.5;entryY=0;entryDx=0;entryDy=0;fontSize=10;" edge="1" parent="1" source="4kz16ThGhGbznya0biYC-10" target="4kz16ThGhGbznya0biYC-24">
          <mxGeometry relative="1" as="geometry">
            <mxPoint x="170.85786437626916" y="280.2478643762691" as="targetPoint" />
            <mxPoint x="120.60660171779602" y="249.996601717796" as="sourcePoint" />
          </mxGeometry>
        </mxCell>
        <mxCell id="4kz16ThGhGbznya0biYC-21" style="rounded=0;orthogonalLoop=1;jettySize=auto;html=1;exitX=0.5;exitY=1;exitDx=0;exitDy=0;entryX=0.5;entryY=0;entryDx=0;entryDy=0;" edge="1" parent="1" source="4kz16ThGhGbznya0biYC-10" target="4kz16ThGhGbznya0biYC-25">
          <mxGeometry relative="1" as="geometry">
            <mxPoint x="110" y="254.39" as="sourcePoint" />
          </mxGeometry>
        </mxCell>
        <mxCell id="4kz16ThGhGbznya0biYC-23" value="K" style="ellipse;whiteSpace=wrap;html=1;aspect=fixed;fontSize=10;" vertex="1" parent="1">
          <mxGeometry x="45" y="274.39" width="30" height="30" as="geometry" />
        </mxCell>
        <mxCell id="4kz16ThGhGbznya0biYC-24" value="M" style="ellipse;whiteSpace=wrap;html=1;aspect=fixed;fontSize=10;" vertex="1" parent="1">
          <mxGeometry x="145" y="274.39" width="30" height="30" as="geometry" />
        </mxCell>
        <mxCell id="4kz16ThGhGbznya0biYC-25" value="L" style="ellipse;whiteSpace=wrap;html=1;aspect=fixed;fontSize=10;" vertex="1" parent="1">
          <mxGeometry x="95" y="274.39" width="30" height="30" as="geometry" />
        </mxCell>
        <mxCell id="4kz16ThGhGbznya0biYC-26" value="N" style="ellipse;whiteSpace=wrap;html=1;aspect=fixed;fontSize=10;" vertex="1" parent="1">
          <mxGeometry x="195" y="274.39" width="30" height="30" as="geometry" />
        </mxCell>
        <mxCell id="4kz16ThGhGbznya0biYC-27" style="rounded=0;orthogonalLoop=1;jettySize=auto;html=1;exitX=0.5;exitY=1;exitDx=0;exitDy=0;entryX=0.5;entryY=0;entryDx=0;entryDy=0;fontSize=10;" edge="1" parent="1" source="4kz16ThGhGbznya0biYC-10" target="4kz16ThGhGbznya0biYC-26">
          <mxGeometry relative="1" as="geometry">
            <mxPoint x="170" y="284" as="targetPoint" />
            <mxPoint x="145" y="250" as="sourcePoint" />
          </mxGeometry>
        </mxCell>
        <mxCell id="4kz16ThGhGbznya0biYC-28" style="rounded=0;orthogonalLoop=1;jettySize=auto;html=1;exitX=0;exitY=1;exitDx=0;exitDy=0;entryX=1;entryY=0;entryDx=0;entryDy=0;fontSize=10;" edge="1" parent="1" source="4kz16ThGhGbznya0biYC-30" target="4kz16ThGhGbznya0biYC-34">
          <mxGeometry relative="1" as="geometry" />
        </mxCell>
        <mxCell id="4kz16ThGhGbznya0biYC-29" style="rounded=0;orthogonalLoop=1;jettySize=auto;html=1;exitX=1;exitY=1;exitDx=0;exitDy=0;entryX=0;entryY=0;entryDx=0;entryDy=0;fontSize=10;" edge="1" parent="1" source="4kz16ThGhGbznya0biYC-30" target="4kz16ThGhGbznya0biYC-37">
          <mxGeometry relative="1" as="geometry">
            <mxPoint x="505.85786437626894" y="75.85786437626894" as="targetPoint" />
          </mxGeometry>
        </mxCell>
        <mxCell id="4kz16ThGhGbznya0biYC-30" value="A" style="ellipse;whiteSpace=wrap;html=1;aspect=fixed;fontSize=10;" vertex="1" parent="1">
          <mxGeometry x="430" y="20" width="30" height="30" as="geometry" />
        </mxCell>
        <mxCell id="4kz16ThGhGbznya0biYC-31" style="rounded=0;orthogonalLoop=1;jettySize=auto;html=1;exitX=0;exitY=1;exitDx=0;exitDy=0;entryX=0.5;entryY=0;entryDx=0;entryDy=0;fontSize=10;" edge="1" parent="1" source="4kz16ThGhGbznya0biYC-34" target="4kz16ThGhGbznya0biYC-35">
          <mxGeometry relative="1" as="geometry" />
        </mxCell>
        <mxCell id="4kz16ThGhGbznya0biYC-32" style="rounded=0;orthogonalLoop=1;jettySize=auto;html=1;exitX=1;exitY=1;exitDx=0;exitDy=0;entryX=0.5;entryY=0;entryDx=0;entryDy=0;fontSize=10;" edge="1" parent="1" source="4kz16ThGhGbznya0biYC-34" target="4kz16ThGhGbznya0biYC-36">
          <mxGeometry relative="1" as="geometry">
            <mxPoint x="435.85786437626916" y="115.8578643762691" as="targetPoint" />
          </mxGeometry>
        </mxCell>
        <mxCell id="4kz16ThGhGbznya0biYC-33" style="edgeStyle=orthogonalEdgeStyle;rounded=0;orthogonalLoop=1;jettySize=auto;html=1;exitX=0.5;exitY=1;exitDx=0;exitDy=0;entryX=0.5;entryY=0;entryDx=0;entryDy=0;" edge="1" parent="1" source="4kz16ThGhGbznya0biYC-34" target="4kz16ThGhGbznya0biYC-39">
          <mxGeometry relative="1" as="geometry" />
        </mxCell>
        <mxCell id="4kz16ThGhGbznya0biYC-34" value="B" style="ellipse;whiteSpace=wrap;html=1;aspect=fixed;fontSize=10;" vertex="1" parent="1">
          <mxGeometry x="360" y="60" width="30" height="30" as="geometry" />
        </mxCell>
        <mxCell id="4kz16ThGhGbznya0biYC-35" value="D" style="ellipse;whiteSpace=wrap;html=1;aspect=fixed;fontSize=10;fillColor=#d5e8d4;strokeColor=#82b366;" vertex="1" parent="1">
          <mxGeometry x="310" y="110" width="30" height="30" as="geometry" />
        </mxCell>
        <mxCell id="4kz16ThGhGbznya0biYC-36" value="F" style="ellipse;whiteSpace=wrap;html=1;aspect=fixed;fontSize=10;fillColor=#d5e8d4;strokeColor=#82b366;" vertex="1" parent="1">
          <mxGeometry x="410" y="110" width="30" height="30" as="geometry" />
        </mxCell>
        <mxCell id="4kz16ThGhGbznya0biYC-37" value="C" style="ellipse;whiteSpace=wrap;html=1;aspect=fixed;fontSize=10;fillColor=#d5e8d4;strokeColor=#82b366;" vertex="1" parent="1">
          <mxGeometry x="500" y="60" width="30" height="30" as="geometry" />
        </mxCell>
        <mxCell id="4kz16ThGhGbznya0biYC-38" style="edgeStyle=orthogonalEdgeStyle;rounded=0;orthogonalLoop=1;jettySize=auto;html=1;exitX=0.5;exitY=1;exitDx=0;exitDy=0;entryX=0.5;entryY=0;entryDx=0;entryDy=0;" edge="1" parent="1" source="4kz16ThGhGbznya0biYC-39">
          <mxGeometry relative="1" as="geometry">
            <mxPoint x="375" y="160.00000000000006" as="targetPoint" />
          </mxGeometry>
        </mxCell>
        <mxCell id="4kz16ThGhGbznya0biYC-39" value="E" style="ellipse;whiteSpace=wrap;html=1;aspect=fixed;fontSize=10;fillColor=#d5e8d4;strokeColor=#82b366;" vertex="1" parent="1">
          <mxGeometry x="360" y="110" width="30" height="30" as="geometry" />
        </mxCell>
        <mxCell id="4kz16ThGhGbznya0biYC-40" style="rounded=0;orthogonalLoop=1;jettySize=auto;html=1;exitX=0;exitY=1;exitDx=0;exitDy=0;entryX=0.5;entryY=0;entryDx=0;entryDy=0;fontSize=10;" edge="1" parent="1" source="4kz16ThGhGbznya0biYC-43" target="4kz16ThGhGbznya0biYC-44">
          <mxGeometry relative="1" as="geometry" />
        </mxCell>
        <mxCell id="4kz16ThGhGbznya0biYC-41" style="rounded=0;orthogonalLoop=1;jettySize=auto;html=1;exitX=1;exitY=1;exitDx=0;exitDy=0;entryX=0.5;entryY=0;entryDx=0;entryDy=0;fontSize=10;" edge="1" parent="1" source="4kz16ThGhGbznya0biYC-43" target="4kz16ThGhGbznya0biYC-45">
          <mxGeometry relative="1" as="geometry">
            <mxPoint x="435.85786437626916" y="215.8578643762691" as="targetPoint" />
          </mxGeometry>
        </mxCell>
        <mxCell id="4kz16ThGhGbznya0biYC-42" style="edgeStyle=orthogonalEdgeStyle;rounded=0;orthogonalLoop=1;jettySize=auto;html=1;exitX=0.5;exitY=1;exitDx=0;exitDy=0;entryX=0.5;entryY=0;entryDx=0;entryDy=0;" edge="1" parent="1" source="4kz16ThGhGbznya0biYC-43" target="4kz16ThGhGbznya0biYC-46">
          <mxGeometry relative="1" as="geometry" />
        </mxCell>
        <mxCell id="4kz16ThGhGbznya0biYC-43" value="G" style="ellipse;whiteSpace=wrap;html=1;aspect=fixed;fontSize=10;" vertex="1" parent="1">
          <mxGeometry x="360" y="160" width="30" height="30" as="geometry" />
        </mxCell>
        <mxCell id="4kz16ThGhGbznya0biYC-44" value="H" style="ellipse;whiteSpace=wrap;html=1;aspect=fixed;fontSize=10;fillColor=#d5e8d4;strokeColor=#82b366;" vertex="1" parent="1">
          <mxGeometry x="310" y="210" width="30" height="30" as="geometry" />
        </mxCell>
        <mxCell id="4kz16ThGhGbznya0biYC-45" value="J" style="ellipse;whiteSpace=wrap;html=1;aspect=fixed;fontSize=10;" vertex="1" parent="1">
          <mxGeometry x="410" y="210" width="30" height="30" as="geometry" />
        </mxCell>
        <mxCell id="4kz16ThGhGbznya0biYC-46" value="I" style="ellipse;whiteSpace=wrap;html=1;aspect=fixed;fontSize=10;fillColor=#d5e8d4;strokeColor=#82b366;" vertex="1" parent="1">
          <mxGeometry x="360" y="210" width="30" height="30" as="geometry" />
        </mxCell>
        <mxCell id="4kz16ThGhGbznya0biYC-47" style="rounded=0;orthogonalLoop=1;jettySize=auto;html=1;exitX=0.5;exitY=1;exitDx=0;exitDy=0;entryX=0.5;entryY=0;entryDx=0;entryDy=0;fontSize=10;" edge="1" parent="1" source="4kz16ThGhGbznya0biYC-45" target="4kz16ThGhGbznya0biYC-50">
          <mxGeometry relative="1" as="geometry">
            <mxPoint x="389.39339828220386" y="249.99660171779624" as="sourcePoint" />
          </mxGeometry>
        </mxCell>
        <mxCell id="4kz16ThGhGbznya0biYC-48" style="rounded=0;orthogonalLoop=1;jettySize=auto;html=1;exitX=0.5;exitY=1;exitDx=0;exitDy=0;entryX=0.5;entryY=0;entryDx=0;entryDy=0;fontSize=10;" edge="1" parent="1" source="4kz16ThGhGbznya0biYC-45" target="4kz16ThGhGbznya0biYC-51">
          <mxGeometry relative="1" as="geometry">
            <mxPoint x="460.85786437626916" y="280.2478643762691" as="targetPoint" />
            <mxPoint x="410.606601717796" y="249.996601717796" as="sourcePoint" />
          </mxGeometry>
        </mxCell>
        <mxCell id="4kz16ThGhGbznya0biYC-49" style="rounded=0;orthogonalLoop=1;jettySize=auto;html=1;exitX=0.5;exitY=1;exitDx=0;exitDy=0;entryX=0.5;entryY=0;entryDx=0;entryDy=0;" edge="1" parent="1" source="4kz16ThGhGbznya0biYC-45" target="4kz16ThGhGbznya0biYC-52">
          <mxGeometry relative="1" as="geometry">
            <mxPoint x="400" y="254.39" as="sourcePoint" />
          </mxGeometry>
        </mxCell>
        <mxCell id="4kz16ThGhGbznya0biYC-50" value="K" style="ellipse;whiteSpace=wrap;html=1;aspect=fixed;fontSize=10;fillColor=#d5e8d4;strokeColor=#82b366;" vertex="1" parent="1">
          <mxGeometry x="335" y="274.39" width="30" height="30" as="geometry" />
        </mxCell>
        <mxCell id="4kz16ThGhGbznya0biYC-51" value="M" style="ellipse;whiteSpace=wrap;html=1;aspect=fixed;fontSize=10;fillColor=#d5e8d4;strokeColor=#82b366;" vertex="1" parent="1">
          <mxGeometry x="435" y="274.39" width="30" height="30" as="geometry" />
        </mxCell>
        <mxCell id="4kz16ThGhGbznya0biYC-52" value="L" style="ellipse;whiteSpace=wrap;html=1;aspect=fixed;fontSize=10;fillColor=#d5e8d4;strokeColor=#82b366;" vertex="1" parent="1">
          <mxGeometry x="385" y="274.39" width="30" height="30" as="geometry" />
        </mxCell>
        <mxCell id="4kz16ThGhGbznya0biYC-53" value="N" style="ellipse;whiteSpace=wrap;html=1;aspect=fixed;fontSize=10;fillColor=#d5e8d4;strokeColor=#82b366;" vertex="1" parent="1">
          <mxGeometry x="485" y="274.39" width="30" height="30" as="geometry" />
        </mxCell>
        <mxCell id="4kz16ThGhGbznya0biYC-54" style="rounded=0;orthogonalLoop=1;jettySize=auto;html=1;exitX=0.5;exitY=1;exitDx=0;exitDy=0;entryX=0.5;entryY=0;entryDx=0;entryDy=0;fontSize=10;" edge="1" parent="1" source="4kz16ThGhGbznya0biYC-45" target="4kz16ThGhGbznya0biYC-53">
          <mxGeometry relative="1" as="geometry">
            <mxPoint x="460" y="284" as="targetPoint" />
            <mxPoint x="435" y="250" as="sourcePoint" />
          </mxGeometry>
        </mxCell>
      </root>
    </mxGraphModel>
  </diagram>
</mxfile>
